<svg width="138" height="61" viewBox="0 0 138 61" fill="none" xmlns="http://www.w3.org/2000/svg">
<path d="M36.1744 11.9048C36.1744 11.3819 36.578 10.9171 37.1545 10.9171C37.6734 10.9171 38.077 11.3238 38.077 11.8467C38.077 12.3695 37.6734 12.7762 37.1545 12.8343C36.6357 12.8924 36.1744 12.4276 36.1744 11.9048ZM37.0969 19.5733C37.6158 19.5152 38.0193 19.0505 37.9617 18.5276C37.904 18.0629 37.5581 17.6562 37.0969 17.6562C36.578 17.5981 36.1168 18.0048 36.0591 18.5276C36.0015 19.0505 36.4051 19.5152 36.9239 19.5733C36.9816 19.5733 37.0392 19.5733 37.0969 19.5733ZM37.0969 28.1714C38.7112 28.1714 39.9795 26.8933 39.9795 25.2667C39.9795 23.64 38.7112 22.3619 37.0969 22.3619C35.4826 22.3619 34.2142 23.64 34.2142 25.2667C34.2142 26.8933 35.5403 28.1714 37.0969 28.1714ZM43.727 12.8343C44.2459 12.8343 44.7071 12.4276 44.7071 11.9048C44.7071 11.3819 44.3035 10.9171 43.7846 10.9171C43.2658 10.9171 42.8045 11.3238 42.8045 11.8467C42.8045 11.8467 42.8045 11.8467 42.8045 11.9048C42.8045 12.4276 43.2658 12.8343 43.727 12.8343ZM43.727 21.4324C45.2836 21.4324 46.552 20.1543 46.552 18.5857C46.552 17.0171 45.2836 15.739 43.727 15.739C42.1704 15.739 40.902 17.0171 40.902 18.5857C40.902 20.1543 42.1704 21.4324 43.727 21.4324ZM43.727 28.1714C45.3413 28.1714 46.6096 26.8933 46.6096 25.2667C46.6096 23.64 45.3413 22.3619 43.727 22.3619C42.1127 22.3619 40.8443 23.64 40.8443 25.2667C40.8443 26.8352 42.1127 28.1714 43.727 28.1714ZM50.4147 14.7514C51.9714 14.7514 53.2397 13.4152 53.2397 11.8467C53.2397 10.2781 51.9137 9 50.3571 9C48.8004 9 47.5321 10.2781 47.5321 11.8467C47.5321 13.4733 48.8004 14.7514 50.4147 14.7514ZM51.3372 18.5857C51.3372 18.0629 50.9336 17.5981 50.4147 17.5981C49.8958 17.5981 49.4346 18.0048 49.4346 18.5276C49.4346 19.0505 49.8382 19.5152 50.3571 19.5152C50.9336 19.5152 51.3372 19.1086 51.3372 18.5857ZM47.7627 24.1629C47.1862 25.6152 47.878 27.3 49.3193 27.881C50.7606 28.4619 52.4326 27.7648 53.0091 26.3124C53.5856 24.86 52.8938 23.1752 51.4525 22.5943C50.0112 22.0133 48.3392 22.7105 47.7627 24.1629ZM31.3316 53.1524V46.82H26.2005V47.9238H16.1689L16.3995 47.7495C16.5724 47.5752 16.7454 47.459 16.976 47.3429L27.0076 41.3591C29.6597 39.7324 31.3316 36.8276 31.3316 33.6905V31.0762H10V38.7448H15.1311V36.3048H25.1627L24.9321 36.479C24.7592 36.6533 24.5862 36.7695 24.3556 36.8857L14.3816 42.8695C11.6719 44.4962 10.0577 47.401 10.0577 50.5381V53.1524H31.3316ZM103.974 53.1524V36.3048H105.358V31.1343H98.9009V45.1352L89.734 31.1343H81.3167V36.3048H82.9886V53.1524H88.1198V38.1057L97.9208 53.1524H103.974ZM128.996 53.1524V38.3381C128.996 34.3876 125.767 31.1343 121.847 31.1343H107.952V38.6286H113.083V36.3048H121.847C122.366 36.3048 122.884 36.5371 123.23 36.8857L123.346 37.0019L106.223 42.8114V44.7286C106.223 49.3762 109.97 53.1524 114.582 53.1524H128.996ZM123.865 42.2886V47.9819H114.64C113.545 47.9819 112.565 47.459 111.988 46.5295L111.93 46.4133L123.865 42.2886ZM55.6035 53.1524V46.7619H50.4724V47.9819H42.055C40.1525 47.9819 38.5959 46.5295 38.4229 44.6124V44.4962H47.5321V39.2676H38.4229V36.3048H48.8004V37.5248H53.9316V31.1343H33.2918V44.2638C33.2918 49.1438 37.2122 53.0943 42.055 53.1524H55.6035ZM80.106 53.1524V47.9819L77.281 47.9238L73.9948 44.4962L79.7601 42.5791V40.6619C79.7601 35.3752 75.4938 31.1343 70.305 31.1343H56.5259V36.3048H58.2555V53.1524H63.3866L63.4443 48.0981L68.6331 46.4133L75.0325 53.1524H80.106ZM63.3866 36.3048H70.305C71.9769 36.3048 73.5336 37.2924 74.2254 38.8029L74.2831 38.919L63.3866 42.6371V36.3048Z" fill="black"/>
</svg>
